<?xml version="1.0" encoding="UTF-8"?>
<!DOCTYPE svg PUBLIC "-//W3C//DTD SVG 1.1//EN" "http://www.w3.org/Graphics/SVG/1.1/DTD/svg11.dtd">
<svg xmlns="http://www.w3.org/2000/svg" version="1.1" width="208px" height="208px" style="shape-rendering:geometricPrecision; text-rendering:geometricPrecision; image-rendering:optimizeQuality; fill-rule:evenodd; clip-rule:evenodd" xmlns:xlink="http://www.w3.org/1999/xlink">
<g><path style="opacity:0.989" fill="#cc0000" d="M 100.5,6.5 C 148.597,7.7858 180.43,31.1191 196,76.5C 206.083,128.161 187.917,165.994 141.5,190C 98.2046,205.212 61.0379,196.045 30,162.5C 1.0941,121.628 1.42744,80.9612 31,40.5C 49.7078,19.8955 72.8744,8.56215 100.5,6.5 Z"/></g>
<g><path style="opacity:1" fill="#fefafa" d="M 103.5,44.5 C 107.493,44.2447 110.326,45.9114 112,49.5C 124.057,79.2812 136.391,108.948 149,138.5C 150.833,146.667 147.667,149.833 139.5,148C 122.667,134.5 105.833,121 89,107.5C 83.2752,120.674 77.9419,134.007 73,147.5C 68.2183,148.802 63.385,148.802 58.5,147.5C 71.6667,115.833 84.8333,84.1667 98,52.5C 99.129,49.2064 100.962,46.5397 103.5,44.5 Z"/></g>
<g><path style="opacity:1" fill="#cd0d06" d="M 105.5,65.5 C 114.025,84.9127 121.859,104.579 129,124.5C 116.858,115.355 105.025,105.855 93.5,96C 97.6045,85.8491 101.605,75.6824 105.5,65.5 Z"/></g>
</svg>
